<?xml version="1.0" encoding="UTF-8"?>
<svg id="Capa_1" data-name="Capa 1" xmlns="http://www.w3.org/2000/svg" viewBox="0 0 2499.97 2500">
  <defs>
    <style>
      .cls-1 {
        fill: #f4f4f4;
      }
    </style>
  </defs>
  <path class="cls-1" d="m1249.98,0C560.74,0,0,560.74,0,1250s560.74,1250,1249.98,1250,1249.99-560.74,1249.99-1250C2499.97,560.74,1939.23,0,1249.98,0Zm0,2338.1c-599.98,0-1088.08-488.12-1088.08-1088.1S650.01,161.9,1249.98,161.9s1088.09,488.12,1088.09,1088.1-488.12,1088.1-1088.09,1088.1h0Zm424.67-1452.7h9.86v-47.78h17.78v-8.44h-45.38v8.44h17.74v47.78Zm43.38-43.44h.18l15.59,43.44h8.03l15.59-43.44h.22v43.44h9.26v-56.22h-13.62l-15.07,43.97h-.26l-15.44-43.97h-13.84v56.22h9.34v-43.44h0Zm-283.89-12.83h-614.93l-93.3,149.94h614.22l94.01-149.94h0Zm125.67,1.43l-375.92,598.59h-416.98l96.2-150.07h249.92l95.47-150h-577.77l-95.45,150h136.88l-189.91,299.62h792.54l292.73-461.65,106.73,162.03h-96.24l-91.14,150.07h285l98.96,149.55h181.8l-492.8-748.14h0Z"/>
</svg>