<svg width="148" height="60" viewBox="0 0 148 60" fill="none" xmlns="http://www.w3.org/2000/svg">
<path fill-rule="evenodd" clip-rule="evenodd" d="M147.697 15.3723H147.691L147.419 16.186H147.132L146.861 15.3723H146.855V16.186H146.551V15H147.035L147.272 15.7162H147.279L147.516 15H148V16.186H147.697V15.3723ZM145.695 15.2693H145.375V15H146.336V15.2693H146.016V16.186H145.695V15.2693ZM38.1458 20.3146H42.489C43.1174 20.3146 43.5848 20.444 43.8784 20.6988C44.157 20.9414 44.294 21.3643 44.2985 21.8495C44.294 22.3406 44.1561 22.6739 43.8755 22.9233C43.583 23.1831 43.1165 23.3152 42.489 23.3152H38.1458V20.3146ZM43.607 17.1839H34.6654H34.3188V17.5314V31.7897V32.1371H34.6654H37.7992H38.1458V31.7897V26.2459H42.1898C42.8759 26.2459 43.3643 26.3863 43.6414 26.6632C43.9305 26.9535 44.1262 27.4378 44.2212 28.1046C44.2988 28.654 44.3565 29.553 44.3982 30.1949C44.4397 30.8507 44.5542 31.4292 44.7392 31.9141L44.8242 32.1371H45.0633H48.1977H48.8835L48.4768 31.5847C48.3575 31.4218 48.2652 31.2168 48.2033 30.9745C48.1334 30.7002 48.0825 30.4117 48.0529 30.1176C48.0198 29.8001 47.9973 29.4926 47.9852 29.2005L47.9822 29.1419C47.9686 28.8569 47.957 28.2882 47.944 28.0743C47.9165 27.6991 47.8641 27.3214 47.7883 26.9482C47.7084 26.5566 47.5793 26.1925 47.4044 25.8649C47.2268 25.5308 46.9924 25.2364 46.7094 24.9879C46.5922 24.8866 46.4625 24.7947 46.3207 24.7142C46.8547 24.3943 47.2662 23.987 47.5491 23.497C47.9316 22.8315 48.113 22.1822 48.1252 21.4656C48.1252 20.8774 48.0186 20.3178 47.8084 19.806C47.5992 19.2921 47.291 18.8332 46.8932 18.4419C46.4963 18.0524 46.015 17.742 45.4623 17.519C44.9103 17.2968 44.286 17.1839 43.607 17.1839ZM135.523 17.2207V19.295H135.608C136.127 18.4292 136.796 17.803 137.622 17.4088C138.444 17.016 139.291 16.819 140.153 16.819C141.247 16.819 142.143 16.9674 142.838 17.2666C143.539 17.5628 144.091 17.9742 144.497 18.5012C144.897 19.0299 145.178 19.6727 145.344 20.4307C145.506 21.1884 145.586 22.0299 145.586 22.9508V32.101H141.501V23.6999C141.501 22.4713 141.316 21.5539 140.927 20.9502C140.544 20.3439 139.864 20.0447 138.889 20.0447C137.776 20.0447 136.966 20.3738 136.473 21.0364C135.973 21.6985 135.722 22.7879 135.722 24.3021V32.101H131.637V17.2207H135.523ZM122.177 32.101L119.53 22.1143H119.473L116.943 32.101H112.713L107.994 17.2207H112.312L115.042 27.3243H115.102L117.572 17.2207H121.543L124.077 27.2947H124.134L126.868 17.2207H131.064L126.373 32.101H122.177ZM103.518 25.181C103.255 25.2678 102.982 25.338 102.684 25.3957C102.386 25.455 102.078 25.5018 101.75 25.5412C101.422 25.5779 101.097 25.6274 100.771 25.6834C100.464 25.7396 100.161 25.8184 99.8674 25.9153C99.5673 26.0121 99.3098 26.1383 99.0904 26.3027C98.869 26.4665 98.6891 26.6718 98.5544 26.9227C98.423 27.173 98.3519 27.4867 98.3519 27.8706C98.3519 28.2355 98.423 28.5441 98.5544 28.7935C98.6891 29.0418 98.872 29.2387 99.1017 29.383C99.3335 29.5258 99.6028 29.6274 99.9115 29.6839C100.218 29.7438 100.529 29.7707 100.858 29.7707C101.659 29.7707 102.287 29.6386 102.725 29.3676C103.166 29.101 103.496 28.7764 103.705 28.402C103.919 28.029 104.044 27.6534 104.096 27.2675C104.138 26.8842 104.166 26.5758 104.166 26.3454V24.8217C103.994 24.9763 103.778 25.0948 103.518 25.181ZM95.4502 19.4108C95.8706 18.7743 96.4072 18.2681 97.0634 17.883C97.7132 17.4988 98.4437 17.2257 99.2627 17.0619C100.076 16.9008 100.895 16.819 101.719 16.819C102.471 16.819 103.225 16.8723 103.994 16.9784C104.76 17.082 105.457 17.2897 106.092 17.5948C106.726 17.9031 107.241 18.3282 107.647 18.8762C108.047 19.4224 108.252 20.149 108.252 21.0512V28.7935C108.252 29.463 108.287 30.1075 108.365 30.7207C108.441 31.3371 108.577 31.7965 108.767 32.101H104.627C104.548 31.8735 104.487 31.638 104.439 31.3984C104.389 31.1558 104.358 30.9126 104.339 30.6644C103.687 31.3371 102.916 31.8048 102.035 32.0738C101.157 32.3415 100.255 32.4766 99.3335 32.4766C98.6251 32.4766 97.9624 32.3919 97.3511 32.2189C96.7358 32.0477 96.1988 31.7773 95.7374 31.415C95.2762 31.0498 94.9189 30.588 94.6575 30.0314C94.3988 29.4751 94.2716 28.8125 94.2716 28.0427C94.2716 27.202 94.4187 26.5041 94.7188 25.9571C95.0139 25.4102 95.3996 24.9763 95.8661 24.6463C96.3373 24.3223 96.8764 24.0785 97.4799 23.9129C98.0834 23.7509 98.6891 23.6232 99.3059 23.5255C99.9181 23.4307 100.522 23.3554 101.114 23.295C101.713 23.2376 102.238 23.1514 102.698 23.0361C103.159 22.9197 103.524 22.7533 103.792 22.5314C104.059 22.3113 104.184 21.9893 104.166 21.5687C104.166 21.1274 104.096 20.7773 103.95 20.5142C103.81 20.2574 103.617 20.0581 103.376 19.9138C103.134 19.7695 102.859 19.6727 102.537 19.6253C102.223 19.5779 101.886 19.5536 101.521 19.5536C100.713 19.5536 100.084 19.7248 99.6218 20.0711C99.163 20.4174 98.8906 20.9911 98.8155 21.7962H94.7321C94.7896 20.8374 95.0284 20.0447 95.4502 19.4108ZM87.9715 29.0249C88.4217 28.7553 88.7864 28.402 89.0655 27.9716C89.3417 27.5412 89.5388 27.037 89.6551 26.4624C89.7706 25.886 89.8286 25.2989 89.8286 24.7047C89.8286 24.1093 89.767 23.5255 89.6409 22.9508C89.5157 22.3741 89.3076 21.8608 89.0226 21.4138C88.7343 20.9612 88.3619 20.5948 87.915 20.3169C87.4639 20.0397 86.9103 19.9005 86.26 19.9005C85.589 19.9005 85.029 20.0397 84.5787 20.3169C84.1253 20.5948 83.7615 20.9556 83.485 21.3954C83.2074 21.8368 83.0111 22.346 82.8966 22.9197C82.78 23.4953 82.7234 24.0924 82.7234 24.7047C82.7234 25.2989 82.7862 25.886 82.9134 26.4624C83.0348 27.037 83.2364 27.5412 83.5158 27.9716C83.7917 28.402 84.164 28.7553 84.6202 29.0249C85.0802 29.2924 85.6367 29.4268 86.2881 29.4268C86.9583 29.4268 87.5231 29.2924 87.9715 29.0249ZM82.6651 17.2207V19.1232H82.7234C83.2192 18.3178 83.8532 17.7319 84.6202 17.3667C85.3874 17.0018 86.2319 16.819 87.1534 16.819C88.3214 16.819 89.3287 17.0412 90.1714 17.4825C91.0156 17.9239 91.715 18.5071 92.2703 19.2358C92.828 19.9671 93.2397 20.8134 93.5079 21.7855C93.7787 22.7533 93.9096 23.766 93.9096 24.8217C93.9096 25.8184 93.7787 26.7764 93.5079 27.6985C93.2397 28.6203 92.8321 29.436 92.2851 30.1451C91.7408 30.8554 91.0597 31.4239 90.2466 31.8442C89.4302 32.2642 88.4756 32.4766 87.3822 32.4766C86.4631 32.4766 85.615 32.2894 84.8383 31.915C84.0613 31.5409 83.424 30.9914 82.9268 30.2613H82.867V35.9322H78.7825V17.2207H82.6651ZM68.2455 28.402C68.4316 28.721 68.6655 28.9807 68.9556 29.1804C69.2388 29.383 69.573 29.5311 69.9451 29.6274C70.3189 29.7245 70.7067 29.7707 71.1096 29.7707C71.3958 29.7707 71.698 29.7384 72.0159 29.6718C72.3297 29.6034 72.6218 29.497 72.877 29.3549C73.1366 29.2112 73.3556 29.0193 73.5249 28.7764C73.6978 28.5394 73.7827 28.2355 73.7827 27.8706C73.7827 27.2592 73.3781 26.798 72.5623 26.489C71.7463 26.1863 70.612 25.8753 69.1521 25.5684C68.5595 25.4348 67.9802 25.2778 67.4155 25.0948C66.8469 24.9129 66.3446 24.6706 65.905 24.3741C65.4622 24.0785 65.107 23.7026 64.8397 23.253C64.5697 22.8018 64.4368 22.2509 64.4368 21.5992C64.4368 20.6363 64.6209 19.851 64.9977 19.2358C65.3701 18.6235 65.8633 18.1404 66.4801 17.7829C67.0937 17.4271 67.7828 17.1789 68.5489 17.0361C69.317 16.891 70.1035 16.819 70.9104 16.819C71.7125 16.819 72.4942 16.8966 73.2523 17.0474C74.0101 17.2032 74.6852 17.4639 75.2793 17.8267C75.8763 18.1928 76.3674 18.6774 76.7623 19.2796C77.1536 19.8824 77.3889 20.6478 77.4668 21.5687H73.5835C73.5249 20.7838 73.2271 20.2485 72.6932 19.9689C72.1544 19.6949 71.521 19.5536 70.7914 19.5536C70.5643 19.5536 70.313 19.5661 70.0451 19.5966C69.7755 19.6253 69.5319 19.689 69.3108 19.7826C69.0902 19.8803 68.9017 20.019 68.7522 20.2005C68.5962 20.3833 68.5181 20.6271 68.5181 20.9369C68.5181 21.2986 68.656 21.5992 68.926 21.8264C69.193 22.0578 69.5425 22.2441 69.9747 22.3895C70.4048 22.5314 70.8985 22.6617 71.4562 22.7767C72.0118 22.8946 72.5748 23.0169 73.152 23.1514C73.7451 23.285 74.3241 23.4499 74.8907 23.6404C75.4572 23.8321 75.9607 24.0883 76.402 24.4049C76.8449 24.7201 77.1983 25.1129 77.4668 25.5844C77.737 26.0539 77.8693 26.6368 77.8693 27.3243C77.8693 28.3027 77.6742 29.1244 77.2785 29.7867C76.8848 30.4479 76.3736 30.9778 75.739 31.383C75.1091 31.7826 74.3839 32.0684 73.5702 32.2331C72.7538 32.394 71.9233 32.4766 71.0794 32.4766C70.218 32.4766 69.3732 32.3919 68.5489 32.2189C67.7233 32.0477 66.9916 31.7571 66.3505 31.3543C65.704 30.9529 65.178 30.4174 64.7672 29.7568C64.3551 29.0951 64.1281 28.2648 64.092 27.2675H67.9743C67.9743 27.7097 68.0664 28.0865 68.2455 28.402ZM58.4428 20.7047C57.9497 20.1679 57.2061 19.9005 56.2092 19.9005C55.5571 19.9005 55.0163 20.0089 54.5839 20.231C54.1529 20.4508 53.8069 20.723 53.5502 21.0512C53.2912 21.3762 53.106 21.7222 53.0012 22.0862C52.8976 22.4499 52.8073 22.9834 52.815 23.3152H59.4605C59.3587 22.2574 58.9274 21.2444 58.4428 20.7047ZM53.8243 28.5329C54.4371 29.1303 55.3183 29.4268 56.4706 29.4268C57.2926 29.4268 58.005 29.2204 58.5956 28.8063C59.1929 28.396 59.5546 27.957 59.6899 27.4973H63.2845C62.71 29.2832 61.8267 30.5586 60.6406 31.3238C59.4504 32.0927 58.0154 32.4766 56.3282 32.4766C55.1555 32.4766 54.1002 32.2894 53.1634 31.915C52.2194 31.5409 51.4267 31.0089 50.7735 30.3155C50.122 29.6274 49.6185 28.8009 49.2639 27.8442C48.909 26.8842 48.7323 25.8282 48.7323 24.6754C48.7323 23.5622 48.9155 22.5281 49.2813 21.5687C49.6419 20.6102 50.1599 19.779 50.8321 19.0785C51.5028 18.3783 52.3014 17.8267 53.2332 17.4242C54.163 17.0213 55.1925 16.819 56.3282 16.819C57.5906 16.819 58.6909 17.0619 59.6322 17.5536C60.5723 18.0435 61.3451 18.6976 61.9487 19.5246C62.5537 20.348 62.9861 21.2894 63.2558 22.346C63.5246 23.4023 63.648 24.7613 63.5696 25.912H52.8416C52.8976 27.2367 53.2098 27.939 53.8243 28.5329ZM140.075 39.3593V38.1146H145.586V39.3593H143.574V44.8403H142.094V39.3593H140.075ZM132.37 38.1146L135.17 42.6235H135.192V38.1146H136.574V44.8403H135.094L132.302 40.3395H132.281V44.8403H130.896V38.1146H132.37ZM126.887 38.1146V39.3593H123.341V40.798H126.599V41.9461H123.341V43.5951H126.969V44.8403H121.86V38.1146H126.887ZM112.764 38.1146L114.34 42.7382H114.362L115.849 38.1146H117.933V44.8403H116.541V40.0741H116.526L114.875 44.8403H113.739L112.091 40.1179H112.074V44.8403H110.691V38.1146H112.764ZM102.544 38.1146L105.349 42.6235H105.371V38.1146H106.752V44.8403H105.276L102.481 40.3395H102.459V44.8403H101.077V38.1146H102.544ZM95.6622 44.8403H97.1395V38.1146H95.6622V44.8403ZM90.0189 42.2393L89.1676 39.7698H89.1481L88.279 42.2393H90.0189ZM89.9286 38.1146L92.442 44.8403H90.9054L90.4034 43.3403H87.8871L87.3591 44.8403H85.8729L88.4137 38.1146H89.9286ZM78.5261 39.3593V38.1146H84.0406V39.3593H82.0186V44.8403H80.5452V39.3593H78.5261ZM72.8882 41.1588C73.2316 41.1588 73.4787 41.0773 73.6569 40.9283C73.82 40.777 73.9053 40.5352 73.9053 40.1967C73.9053 39.8679 73.82 39.6351 73.6569 39.4831C73.4787 39.3344 73.2316 39.2607 72.8882 39.2607H71.2685V41.1588H72.8882ZM73.4187 38.1146C73.7206 38.1146 73.9855 38.1632 74.2332 38.2604C74.4721 38.3543 74.6773 38.4896 74.8563 38.6588C75.0274 38.8297 75.158 39.0237 75.2462 39.2506C75.3406 39.4719 75.3817 39.7112 75.3817 39.9665C75.3817 40.3661 75.3018 40.7073 75.1352 40.9979C74.9659 41.287 74.6989 41.5068 74.3218 41.6597V41.6762C74.5065 41.7251 74.65 41.7977 74.7734 41.9043C74.8907 42.0124 74.9946 42.1291 75.0686 42.2684C75.1352 42.4126 75.1926 42.5678 75.2245 42.7382C75.2684 42.9067 75.2894 43.0788 75.3018 43.2491C75.3074 43.3587 75.3074 43.4802 75.3225 43.6283C75.3255 43.7695 75.3406 43.9159 75.3477 44.0675C75.3631 44.2162 75.3986 44.3587 75.4297 44.4976C75.4616 44.6294 75.5126 44.7435 75.5889 44.8403H74.1009C74.0186 44.6235 73.9743 44.3744 73.9583 44.077C73.9373 43.7838 73.9053 43.4982 73.8709 43.2272C73.82 42.8765 73.7037 42.6167 73.5492 42.4553C73.3858 42.2918 73.1164 42.21 72.7447 42.21H71.2685V44.8403H69.7953V38.1146H73.4187ZM66.0841 38.1146V39.3593H62.5365V40.798H65.7958V41.9461H62.5365V43.5951H66.1563V44.8403H61.0512V38.1146H66.0841ZM52.1401 39.3593V38.1146H57.6478V39.3593H55.6329V44.8403H54.1553V39.3593H52.1401ZM44.5255 38.1146L47.331 42.6235H47.347V38.1146H48.7323V44.8403H47.2528L44.4562 40.3395H44.4414V44.8403H43.055V38.1146H44.5255ZM39.3443 38.1146V39.3593H35.7929V40.798H39.0551V41.9461H35.7929V43.5951H39.4189V44.8403H34.3188V38.1146H39.3443ZM14.3726 38.9615C14.3726 37.5246 13.2057 36.3614 11.774 36.3614C10.3381 36.3614 9.1757 37.5246 9.1757 38.9615C9.1757 40.394 10.3381 41.5619 11.774 41.5619C13.2057 41.5619 14.3726 40.394 14.3726 38.9615ZM14.3726 31.1052C14.3726 29.6724 13.2057 28.5092 11.774 28.5092C10.3381 28.5092 9.1757 29.6724 9.1757 31.1052C9.1757 32.5421 10.3381 33.7011 11.774 33.7011C13.2057 33.7011 14.3726 32.5421 14.3726 31.1052ZM14.3726 23.253C14.3726 21.8161 13.2057 20.6528 11.774 20.6528C10.3381 20.6528 9.1757 21.8161 9.1757 23.253C9.1757 24.6857 10.3381 25.8492 11.774 25.8492C13.2057 25.8492 14.3726 24.6857 14.3726 23.253ZM22.2234 31.1052C22.2234 29.6724 21.0607 28.5092 19.6248 28.5092C18.1889 28.5092 17.0265 29.6724 17.0265 31.1052C17.0265 32.5421 18.1889 33.7011 19.6248 33.7011C21.0607 33.7011 22.2234 32.5421 22.2234 31.1052ZM28.3473 19.8063V42.404C28.3473 43.1182 28.057 43.7684 27.5866 44.239C27.1166 44.7094 26.4668 45 25.749 45H2.59858C1.184 45 0.029896 43.8626 0.00444 42.4511H0V19.8018C0.00444 19.0835 0.294816 18.4334 0.76516 17.9671C1.23521 17.4967 1.88493 17.2059 2.59858 17.2059H25.749C27.1808 17.2059 28.3473 18.3691 28.3473 19.8063Z" fill="white"/>
</svg>
