<svg width="109" height="60" viewBox="0 0 109 60" fill="none" xmlns="http://www.w3.org/2000/svg">
<g clip-path="url(#clip0_15340_340)">
<path d="M28.8853 54.0369V54.6598C28.8853 54.8332 28.7817 54.9369 28.6082 54.9369H27.1191V53.7598H28.6082C28.7817 53.7598 28.8853 53.8634 28.8853 54.0369Z" fill="white"/>
<path d="M34.9128 53.7597H33.3878V54.8681H34.9128C35.0862 54.8681 35.1899 54.7644 35.1899 54.591V54.0368C35.1899 53.8634 35.0862 53.7597 34.9128 53.7597ZM34.9128 53.7597H33.3878V54.8681H34.9128C35.0862 54.8681 35.1899 54.7644 35.1899 54.591V54.0368C35.1899 53.8634 35.0862 53.7597 34.9128 53.7597ZM34.9128 53.7597H33.3878V54.8681H34.9128C35.0862 54.8681 35.1899 54.7644 35.1899 54.591V54.0368C35.1899 53.8634 35.0862 53.7597 34.9128 53.7597ZM41.4602 53.69H39.9701C39.7967 53.69 39.693 53.7936 39.693 53.9671V56.115C39.693 56.2884 39.7967 56.3921 39.9701 56.3921H41.4602C41.6326 56.3921 41.7373 56.2884 41.7373 56.115V53.9671C41.7373 53.7936 41.6326 53.69 41.4602 53.69ZM41.4602 53.69H39.9701C39.7967 53.69 39.693 53.7936 39.693 53.9671V56.115C39.693 56.2884 39.7967 56.3921 39.9701 56.3921H41.4602C41.6326 56.3921 41.7373 56.2884 41.7373 56.115V53.9671C41.7373 53.7936 41.6326 53.69 41.4602 53.69ZM34.9128 53.7597H33.3878V54.8681H34.9128C35.0862 54.8681 35.1899 54.7644 35.1899 54.591V54.0368C35.1899 53.8634 35.0862 53.7597 34.9128 53.7597ZM34.9128 53.7597H33.3878V54.8681H34.9128C35.0862 54.8681 35.1899 54.7644 35.1899 54.591V54.0368C35.1899 53.8634 35.0862 53.7597 34.9128 53.7597ZM41.4602 53.69H39.9701C39.7967 53.69 39.693 53.7936 39.693 53.9671V56.115C39.693 56.2884 39.7967 56.3921 39.9701 56.3921H41.4602C41.6326 56.3921 41.7373 56.2884 41.7373 56.115V53.9671C41.7373 53.7936 41.6326 53.69 41.4602 53.69ZM61.1634 54.1754H61.0936L60.6431 55.3874H61.6139L61.1634 54.1754ZM61.1634 54.1754H61.0936L60.6431 55.3874H61.6139L61.1634 54.1754ZM41.4602 53.69H39.9701C39.7967 53.69 39.693 53.7936 39.693 53.9671V56.115C39.693 56.2884 39.7967 56.3921 39.9701 56.3921H41.4602C41.6326 56.3921 41.7373 56.2884 41.7373 56.115V53.9671C41.7373 53.7936 41.6326 53.69 41.4602 53.69ZM34.9128 53.7597H33.3878V54.8681H34.9128C35.0862 54.8681 35.1899 54.7644 35.1899 54.591V54.0368C35.1899 53.8634 35.0862 53.7597 34.9128 53.7597ZM34.9128 53.7597H33.3878V54.8681H34.9128C35.0862 54.8681 35.1899 54.7644 35.1899 54.591V54.0368C35.1899 53.8634 35.0862 53.7597 34.9128 53.7597ZM41.4602 53.69H39.9701C39.7967 53.69 39.693 53.7936 39.693 53.9671V56.115C39.693 56.2884 39.7967 56.3921 39.9701 56.3921H41.4602C41.6326 56.3921 41.7373 56.2884 41.7373 56.115V53.9671C41.7373 53.7936 41.6326 53.69 41.4602 53.69ZM61.1634 54.1754H61.0936L60.6431 55.3874H61.6139L61.1634 54.1754ZM61.1634 54.1754H61.0936L60.6431 55.3874H61.6139L61.1634 54.1754ZM41.4602 53.69H39.9701C39.7967 53.69 39.693 53.7936 39.693 53.9671V56.115C39.693 56.2884 39.7967 56.3921 39.9701 56.3921H41.4602C41.6326 56.3921 41.7373 56.2884 41.7373 56.115V53.9671C41.7373 53.7936 41.6326 53.69 41.4602 53.69ZM34.9128 53.7597H33.3878V54.8681H34.9128C35.0862 54.8681 35.1899 54.7644 35.1899 54.591V54.0368C35.1899 53.8634 35.0862 53.7597 34.9128 53.7597ZM4.75391 50.082L14.6719 60H93.4867L103.405 50.082H4.75391ZM30.2013 54.902C30.2013 55.6645 29.7857 56.0801 29.0232 56.0801H27.1185V57.2582C27.1185 57.3967 27.0488 57.4665 26.9102 57.4665H26.0092C25.8706 57.4665 25.8019 57.3967 25.8019 57.2582V52.8238C25.8019 52.6853 25.8706 52.6155 26.0092 52.6155H29.0232C29.7857 52.6155 30.2013 53.0321 30.2013 53.7936V54.902ZM36.4019 57.4665H35.3972C35.2248 57.4665 35.155 57.3967 35.0862 57.2582L34.4274 56.0113H33.3878V57.2582C33.3878 57.3967 33.3191 57.4665 33.1805 57.4665H32.2795C32.141 57.4665 32.0722 57.3967 32.0722 57.2582V52.8238C32.0722 52.6853 32.141 52.6155 32.2795 52.6155H35.3284C36.0909 52.6155 36.5065 53.0321 36.5065 53.7936V54.8332C36.5065 55.803 35.7789 55.9415 35.7789 55.9415L36.5065 57.2582C36.5821 57.3967 36.5065 57.4665 36.4019 57.4665ZM43.053 56.3572C43.053 57.1197 42.6373 57.5353 41.8758 57.5353H39.5545C38.792 57.5353 38.3764 57.1197 38.3764 56.3572V53.7249C38.3764 52.9624 38.792 52.5467 39.5545 52.5467H41.8758C42.6373 52.5467 43.053 52.9624 43.053 53.7249V56.3572ZM51.54 57.2582C51.54 57.3967 51.4712 57.4665 51.3326 57.4665H47.7295C47.591 57.4665 47.5212 57.3967 47.5212 57.2582V52.8238C47.5212 52.6853 47.591 52.6155 47.7295 52.6155H48.6305C48.7691 52.6155 48.8379 52.6853 48.8379 52.8238V56.3233H51.3326C51.4712 56.3233 51.54 56.3921 51.54 56.5306V57.2582ZM57.291 57.2582C57.291 57.3967 57.2212 57.4665 57.0827 57.4665H53.341C53.2025 57.4665 53.1337 57.3967 53.1337 57.2582V52.8238C53.1337 52.6853 53.2025 52.6155 53.341 52.6155H57.0139C57.1524 52.6155 57.2212 52.6853 57.2212 52.8238V53.5514C57.2212 53.69 57.1524 53.7597 57.0139 53.7597H54.4494V54.4176H56.3899C56.5285 54.4176 56.5982 54.4864 56.5982 54.6249V55.3525C56.5982 55.491 56.5285 55.5608 56.3899 55.5608H54.4494V56.3233H57.0827C57.2212 56.3233 57.291 56.3921 57.291 56.5306V57.2582ZM63.5884 57.4665H62.5837C62.4452 57.4665 62.3618 57.3967 62.3066 57.2582L62.0295 56.5306H60.2275L59.9504 57.2582C59.8952 57.3967 59.8119 57.4665 59.6733 57.4665H58.6686C58.565 57.4665 58.5098 57.3967 58.565 57.2582L60.2275 52.8238C60.2837 52.6853 60.3661 52.6155 60.5056 52.6155H61.7525C61.891 52.6155 61.9743 52.6853 62.0295 52.8238L63.6921 57.2582C63.7473 57.3967 63.6921 57.4665 63.5884 57.4665ZM69.6785 54.1405C69.6785 54.279 69.6087 54.3478 69.4702 54.3478H68.5702C68.4306 54.3478 68.3618 54.279 68.3618 54.1405V53.9671C68.3618 53.7936 68.2582 53.69 68.0848 53.69H66.6645C66.491 53.69 66.3874 53.7936 66.3874 53.9671V56.115C66.3874 56.2884 66.491 56.3921 66.6645 56.3921H68.0848C68.2582 56.3921 68.3618 56.2884 68.3618 56.115V55.803H67.5306C67.392 55.803 67.3223 55.7342 67.3223 55.5957V54.902C67.3223 54.7644 67.392 54.6947 67.5306 54.6947H69.4702C69.6087 54.6947 69.6785 54.7644 69.6785 54.902V56.3572C69.6785 57.1197 69.2629 57.5353 68.5004 57.5353H66.2488C65.4863 57.5353 65.0707 57.1197 65.0707 56.3572V53.7249C65.0707 52.9624 65.4863 52.5467 66.2488 52.5467H68.5004C69.2629 52.5467 69.6785 52.9624 69.6785 53.7249V54.1405ZM76.191 56.3572C76.191 57.1197 75.7754 57.5353 75.0129 57.5353H72.8301C72.0676 57.5353 71.652 57.1197 71.652 56.3572V52.8238C71.652 52.6853 71.7218 52.6155 71.8603 52.6155H72.7613C72.8999 52.6155 72.9687 52.6853 72.9687 52.8238V56.115C72.9687 56.2884 73.0723 56.3921 73.2458 56.3921H74.5973C74.7707 56.3921 74.8744 56.2884 74.8744 56.115V52.8238C74.8744 52.6853 74.9431 52.6155 75.0817 52.6155H75.9827C76.1213 52.6155 76.191 52.6853 76.191 52.8238V56.3572ZM82.3567 57.2582C82.3567 57.3967 82.2879 57.4665 82.1494 57.4665H78.4077C78.2692 57.4665 78.1994 57.3967 78.1994 57.2582V52.8238C78.1994 52.6853 78.2692 52.6155 78.4077 52.6155H82.0796C82.2181 52.6155 82.2879 52.6853 82.2879 52.8238V53.5514C82.2879 53.69 82.2181 53.7597 82.0796 53.7597H79.5161V54.4176H81.4557C81.5942 54.4176 81.664 54.4864 81.664 54.6249V55.3525C81.664 55.491 81.5942 55.5608 81.4557 55.5608H79.5161V56.3233H82.1494C82.2879 56.3233 82.3567 56.3921 82.3567 56.5306V57.2582ZM61.0936 54.1754L60.6431 55.3874H61.6139L61.1634 54.1754H61.0936ZM41.4602 53.69H39.9701C39.7967 53.69 39.693 53.7936 39.693 53.9671V56.115C39.693 56.2884 39.7967 56.3921 39.9701 56.3921H41.4602C41.6326 56.3921 41.7373 56.2884 41.7373 56.115V53.9671C41.7373 53.7936 41.6326 53.69 41.4602 53.69ZM34.9128 53.7597H33.3878V54.8681H34.9128C35.0862 54.8681 35.1899 54.7644 35.1899 54.591V54.0368C35.1899 53.8634 35.0862 53.7597 34.9128 53.7597ZM34.9128 53.7597H33.3878V54.8681H34.9128C35.0862 54.8681 35.1899 54.7644 35.1899 54.591V54.0368C35.1899 53.8634 35.0862 53.7597 34.9128 53.7597ZM41.4602 53.69H39.9701C39.7967 53.69 39.693 53.7936 39.693 53.9671V56.115C39.693 56.2884 39.7967 56.3921 39.9701 56.3921H41.4602C41.6326 56.3921 41.7373 56.2884 41.7373 56.115V53.9671C41.7373 53.7936 41.6326 53.69 41.4602 53.69ZM61.1634 54.1754H61.0936L60.6431 55.3874H61.6139L61.1634 54.1754ZM61.1634 54.1754H61.0936L60.6431 55.3874H61.6139L61.1634 54.1754ZM41.4602 53.69H39.9701C39.7967 53.69 39.693 53.7936 39.693 53.9671V56.115C39.693 56.2884 39.7967 56.3921 39.9701 56.3921H41.4602C41.6326 56.3921 41.7373 56.2884 41.7373 56.115V53.9671C41.7373 53.7936 41.6326 53.69 41.4602 53.69ZM34.9128 53.7597H33.3878V54.8681H34.9128C35.0862 54.8681 35.1899 54.7644 35.1899 54.591V54.0368C35.1899 53.8634 35.0862 53.7597 34.9128 53.7597ZM34.9128 53.7597H33.3878V54.8681H34.9128C35.0862 54.8681 35.1899 54.7644 35.1899 54.591V54.0368C35.1899 53.8634 35.0862 53.7597 34.9128 53.7597ZM41.4602 53.69H39.9701C39.7967 53.69 39.693 53.7936 39.693 53.9671V56.115C39.693 56.2884 39.7967 56.3921 39.9701 56.3921H41.4602C41.6326 56.3921 41.7373 56.2884 41.7373 56.115V53.9671C41.7373 53.7936 41.6326 53.69 41.4602 53.69ZM41.4602 53.69H39.9701C39.7967 53.69 39.693 53.7936 39.693 53.9671V56.115C39.693 56.2884 39.7967 56.3921 39.9701 56.3921H41.4602C41.6326 56.3921 41.7373 56.2884 41.7373 56.115V53.9671C41.7373 53.7936 41.6326 53.69 41.4602 53.69ZM34.9128 53.7597H33.3878V54.8681H34.9128C35.0862 54.8681 35.1899 54.7644 35.1899 54.591V54.0368C35.1899 53.8634 35.0862 53.7597 34.9128 53.7597ZM34.9128 53.7597H33.3878V54.8681H34.9128C35.0862 54.8681 35.1899 54.7644 35.1899 54.591V54.0368C35.1899 53.8634 35.0862 53.7597 34.9128 53.7597ZM41.4602 53.69H39.9701C39.7967 53.69 39.693 53.7936 39.693 53.9671V56.115C39.693 56.2884 39.7967 56.3921 39.9701 56.3921H41.4602C41.6326 56.3921 41.7373 56.2884 41.7373 56.115V53.9671C41.7373 53.7936 41.6326 53.69 41.4602 53.69ZM41.4602 53.69H39.9701C39.7967 53.69 39.693 53.7936 39.693 53.9671V56.115C39.693 56.2884 39.7967 56.3921 39.9701 56.3921H41.4602C41.6326 56.3921 41.7373 56.2884 41.7373 56.115V53.9671C41.7373 53.7936 41.6326 53.69 41.4602 53.69ZM34.9128 53.7597H33.3878V54.8681H34.9128C35.0862 54.8681 35.1899 54.7644 35.1899 54.591V54.0368C35.1899 53.8634 35.0862 53.7597 34.9128 53.7597Z" fill="white"/>
<path fill-rule="evenodd" clip-rule="evenodd" d="M11.1056 20.428L10.4526 18.6734H10.3712L9.71819 20.428H11.1056ZM9.31031 21.5702L8.94312 22.5497C8.89468 22.6718 8.82104 22.7532 8.65731 22.7532H7.63713C7.51505 22.7532 7.46564 22.6718 7.51505 22.5497L9.51376 17.2463C9.5622 17.1242 9.67653 17.0419 9.84026 17.0419H11.0232C11.186 17.0419 11.2596 17.1233 11.309 17.2463L13.3077 22.5497C13.3562 22.6718 13.3077 22.7532 13.1856 22.7532H12.1655C12.0027 22.7532 11.9291 22.6718 11.8797 22.5497L11.5125 21.5702H9.30934H9.31031Z" fill="white"/>
<path fill-rule="evenodd" clip-rule="evenodd" d="M17.8177 18.1841V19.9387H19.7351C20.0209 19.9387 20.1836 19.7759 20.1836 19.4901V18.6337C20.1836 18.3479 20.0209 18.1851 19.7351 18.1851H17.8177V18.1841ZM17.8177 21.08V22.5487C17.8177 22.6708 17.7363 22.7532 17.6143 22.7532H16.7171C16.5951 22.7532 16.5137 22.6718 16.5137 22.5487V17.2453C16.5137 17.1232 16.5951 17.0409 16.7171 17.0409H20.0625C21.0004 17.0409 21.4906 17.5302 21.4906 18.469V19.6519C21.4906 20.5897 21.0004 21.08 20.0625 21.08H17.8187H17.8177Z" fill="white"/>
<path fill-rule="evenodd" clip-rule="evenodd" d="M26.3851 21.6109H29.6074C29.7295 21.6109 29.8119 21.6923 29.8119 21.8143V22.5487C29.8119 22.6708 29.7305 22.7532 29.6074 22.7532H25.2835C25.1615 22.7532 25.0801 22.6718 25.0801 22.5487V17.2453C25.0801 17.1232 25.1615 17.0409 25.2835 17.0409H29.5261C29.6481 17.0409 29.7305 17.1223 29.7305 17.2453V17.9797C29.7305 18.1018 29.6491 18.1832 29.5261 18.1832H26.3851V19.2847H28.7917C28.9138 19.2847 28.9961 19.3661 28.9961 19.4891V20.2235C28.9961 20.3456 28.9147 20.4279 28.7917 20.4279H26.3851V21.6109Z" fill="white"/>
<path fill-rule="evenodd" clip-rule="evenodd" d="M35.3187 18.7548L36.2982 17.2453C36.3796 17.1232 36.4619 17.0409 36.6247 17.0409H37.6855C37.8076 17.0409 37.89 17.1223 37.8076 17.2453L36.0937 19.7333L38.0111 22.5487C38.0925 22.6708 38.0111 22.7522 37.889 22.7522H36.8281C36.6644 22.7522 36.583 22.6708 36.5016 22.5487L35.3187 20.7535H35.2373L34.0543 22.5487C33.973 22.6708 33.8906 22.7522 33.7278 22.7522H32.667C32.5449 22.7522 32.4625 22.6708 32.5449 22.5487L34.4622 19.7333L32.7484 17.2453C32.667 17.1232 32.7484 17.0409 32.8704 17.0409H33.9313C34.095 17.0409 34.1764 17.1223 34.2578 17.2453L35.2373 18.7548H35.3187Z" fill="white"/>
<path fill-rule="evenodd" clip-rule="evenodd" d="M46.6156 21.6109H49.6752C49.7972 21.6109 49.8796 21.6923 49.8796 21.8143V22.5487C49.8796 22.6708 49.7982 22.7532 49.6752 22.7532H45.514C45.3919 22.7532 45.3105 22.6718 45.3105 22.5487V17.2453C45.3105 17.1232 45.3919 17.0409 45.514 17.0409H46.4111C46.5332 17.0409 46.6156 17.1223 46.6156 17.2453V21.6109Z" fill="white"/>
<path fill-rule="evenodd" clip-rule="evenodd" d="M54.3656 21.6109H57.5889C57.711 21.6109 57.7933 21.6923 57.7933 21.8143V22.5487C57.7933 22.6708 57.7119 22.7532 57.5889 22.7532H53.265C53.1429 22.7532 53.0605 22.6718 53.0605 22.5487V17.2453C53.0605 17.1232 53.1419 17.0409 53.265 17.0409H57.5075C57.6296 17.0409 57.711 17.1223 57.711 17.2453V17.9797C57.711 18.1018 57.6296 18.1832 57.5075 18.1832H54.3656V19.2847H56.7722C56.8942 19.2847 56.9766 19.3661 56.9766 19.4891V20.2235C56.9766 20.3456 56.8952 20.4279 56.7722 20.4279H54.3656V21.6109Z" fill="white"/>
<path fill-rule="evenodd" clip-rule="evenodd" d="M66.2787 21.4064C66.2787 22.3443 65.7894 22.8345 64.8506 22.8345H62.4847C61.5469 22.8345 61.0566 22.3452 61.0566 21.4064V18.3875C61.0566 17.4497 61.5459 16.9595 62.4847 16.9595H64.8506C65.7884 16.9595 66.2787 17.4487 66.2787 18.3875V18.7954C66.2787 18.9175 66.1973 18.9998 66.0742 18.9998H65.1761C65.0541 18.9998 64.9727 18.9185 64.9727 18.7954V18.5503C64.9727 18.2645 64.8099 18.1017 64.5241 18.1017H62.8102C62.5244 18.1017 62.3617 18.2655 62.3617 18.5503V21.2427C62.3617 21.5285 62.5254 21.6913 62.8102 21.6913H64.5241C64.8099 21.6913 64.9727 21.5285 64.9727 21.2427V20.7118H63.9118C63.7897 20.7118 63.7074 20.6304 63.7074 20.5083V19.7739C63.7074 19.6519 63.7888 19.5695 63.9118 19.5695H66.0742C66.1963 19.5695 66.2787 19.6509 66.2787 19.7739V21.4055V21.4064Z" fill="white"/>
<path fill-rule="evenodd" clip-rule="evenodd" d="M71.2542 21.6109H74.4776C74.5996 21.6109 74.682 21.6923 74.682 21.8143V22.5487C74.682 22.6708 74.6006 22.7532 74.4776 22.7532H70.1536C70.0316 22.7532 69.9492 22.6718 69.9492 22.5487V17.2453C69.9492 17.1232 70.0306 17.0409 70.1536 17.0409H74.3962C74.5183 17.0409 74.5996 17.1223 74.5996 17.2453V17.9797C74.5996 18.1018 74.5183 18.1832 74.3962 18.1832H71.2542V19.2847H73.6608C73.7839 19.2847 73.8653 19.3661 73.8653 19.4891V20.2235C73.8653 20.3456 73.7839 20.4279 73.6608 20.4279H71.2542V21.6109Z" fill="white"/>
<path fill-rule="evenodd" clip-rule="evenodd" d="M81.9404 20.7535V17.2453C81.9404 17.1232 82.0218 17.0409 82.1439 17.0409H83.041C83.1631 17.0409 83.2455 17.1223 83.2455 17.2453V22.5487C83.2455 22.6708 83.1641 22.7522 83.041 22.7522H81.9395C81.7757 22.7522 81.6944 22.6708 81.613 22.5487L79.4098 19.0406H79.3285V22.5487C79.3285 22.6708 79.2471 22.7522 79.125 22.7522H78.2279C78.1058 22.7522 78.0234 22.6708 78.0234 22.5487V17.2453C78.0234 17.1232 78.1048 17.0409 78.2279 17.0409H79.3294C79.4932 17.0409 79.5745 17.1223 79.6559 17.2453L81.8591 20.7535H81.9404Z" fill="white"/>
<path fill-rule="evenodd" clip-rule="evenodd" d="M88.305 21.6109H90.4665C90.7523 21.6109 90.9151 21.4481 90.9151 21.1623V18.6327C90.9151 18.3469 90.7523 18.1841 90.4665 18.1841H88.305V21.6109ZM90.794 17.0419C91.7318 17.0419 92.222 17.5311 92.222 18.4699V21.3251C92.222 22.2639 91.7328 22.7532 90.794 22.7532H87.2035C87.0814 22.7532 87 22.6718 87 22.5487V17.2453C87 17.1232 87.0814 17.0409 87.2035 17.0409H90.794V17.0419Z" fill="white"/>
<path fill-rule="evenodd" clip-rule="evenodd" d="M99.3581 21.0799C99.3581 20.8755 99.236 20.7457 98.9909 20.6721L96.7471 19.9784C96.0941 19.7749 95.7686 19.4484 95.7686 18.7547V18.3875C95.7686 17.4497 96.2578 16.9595 97.1966 16.9595H99.1546C100.092 16.9595 100.583 17.4487 100.583 18.3875V18.7954C100.583 18.9175 100.501 18.9998 100.379 18.9998H99.4821C99.36 18.9998 99.2777 18.9185 99.2777 18.7954V18.5503C99.2777 18.2645 99.1149 18.1017 98.8291 18.1017H97.5241C97.2383 18.1017 97.0755 18.2655 97.0755 18.5503V18.6317C97.0755 18.8361 97.1976 18.9659 97.4427 19.0396L99.6865 19.7332C100.34 19.9377 100.665 20.2632 100.665 20.9569V21.4055C100.665 22.3433 100.176 22.8335 99.237 22.8335H97.0745C96.1367 22.8335 95.6465 22.3443 95.6465 21.4055V20.9976C95.6465 20.8755 95.7279 20.7932 95.8499 20.7932H96.7471C96.8692 20.7932 96.9515 20.8745 96.9515 20.9976V21.2427C96.9515 21.5285 97.1152 21.6913 97.4001 21.6913H98.9095C99.1953 21.6913 99.3581 21.5285 99.3581 21.2427V21.0799Z" fill="white"/>
<path fill-rule="evenodd" clip-rule="evenodd" d="M11.1056 20.428L10.4526 18.6734H10.3712L9.71819 20.428H11.1056ZM9.31031 21.5702L8.94312 22.5497C8.89468 22.6718 8.82104 22.7532 8.65731 22.7532H7.63713C7.51505 22.7532 7.46564 22.6718 7.51505 22.5497L9.51376 17.2463C9.5622 17.1242 9.67653 17.0419 9.84026 17.0419H11.0232C11.186 17.0419 11.2596 17.1233 11.309 17.2463L13.3077 22.5497C13.3562 22.6718 13.3077 22.7532 13.1856 22.7532H12.1655C12.0027 22.7532 11.9291 22.6718 11.8797 22.5497L11.5125 21.5702H9.30934H9.31031Z" fill="white"/>
<path fill-rule="evenodd" clip-rule="evenodd" d="M17.8177 18.1841V19.9387H19.7351C20.0209 19.9387 20.1836 19.7759 20.1836 19.4901V18.6337C20.1836 18.3479 20.0209 18.1851 19.7351 18.1851H17.8177V18.1841ZM17.8177 21.08V22.5487C17.8177 22.6708 17.7363 22.7532 17.6143 22.7532H16.7171C16.5951 22.7532 16.5137 22.6718 16.5137 22.5487V17.2453C16.5137 17.1232 16.5951 17.0409 16.7171 17.0409H20.0625C21.0004 17.0409 21.4906 17.5302 21.4906 18.469V19.6519C21.4906 20.5897 21.0004 21.08 20.0625 21.08H17.8187H17.8177Z" fill="white"/>
<path fill-rule="evenodd" clip-rule="evenodd" d="M26.3851 21.6109H29.6074C29.7295 21.6109 29.8119 21.6923 29.8119 21.8143V22.5487C29.8119 22.6708 29.7305 22.7532 29.6074 22.7532H25.2835C25.1615 22.7532 25.0801 22.6718 25.0801 22.5487V17.2453C25.0801 17.1232 25.1615 17.0409 25.2835 17.0409H29.5261C29.6481 17.0409 29.7305 17.1223 29.7305 17.2453V17.9797C29.7305 18.1018 29.6491 18.1832 29.5261 18.1832H26.3851V19.2847H28.7917C28.9138 19.2847 28.9961 19.3661 28.9961 19.4891V20.2235C28.9961 20.3456 28.9147 20.4279 28.7917 20.4279H26.3851V21.6109Z" fill="white"/>
<path fill-rule="evenodd" clip-rule="evenodd" d="M35.3187 18.7548L36.2982 17.2453C36.3796 17.1232 36.4619 17.0409 36.6247 17.0409H37.6855C37.8076 17.0409 37.89 17.1223 37.8076 17.2453L36.0937 19.7333L38.0111 22.5487C38.0925 22.6708 38.0111 22.7522 37.889 22.7522H36.8281C36.6644 22.7522 36.583 22.6708 36.5016 22.5487L35.3187 20.7535H35.2373L34.0543 22.5487C33.973 22.6708 33.8906 22.7522 33.7278 22.7522H32.667C32.5449 22.7522 32.4625 22.6708 32.5449 22.5487L34.4622 19.7333L32.7484 17.2453C32.667 17.1232 32.7484 17.0409 32.8704 17.0409H33.9313C34.095 17.0409 34.1764 17.1223 34.2578 17.2453L35.2373 18.7548H35.3187Z" fill="white"/>
<path fill-rule="evenodd" clip-rule="evenodd" d="M46.6156 21.6109H49.6752C49.7972 21.6109 49.8796 21.6923 49.8796 21.8143V22.5487C49.8796 22.6708 49.7982 22.7532 49.6752 22.7532H45.514C45.3919 22.7532 45.3105 22.6718 45.3105 22.5487V17.2453C45.3105 17.1232 45.3919 17.0409 45.514 17.0409H46.4111C46.5332 17.0409 46.6156 17.1223 46.6156 17.2453V21.6109Z" fill="white"/>
<path fill-rule="evenodd" clip-rule="evenodd" d="M54.3656 21.6109H57.5889C57.711 21.6109 57.7933 21.6923 57.7933 21.8143V22.5487C57.7933 22.6708 57.7119 22.7532 57.5889 22.7532H53.265C53.1429 22.7532 53.0605 22.6718 53.0605 22.5487V17.2453C53.0605 17.1232 53.1419 17.0409 53.265 17.0409H57.5075C57.6296 17.0409 57.711 17.1223 57.711 17.2453V17.9797C57.711 18.1018 57.6296 18.1832 57.5075 18.1832H54.3656V19.2847H56.7722C56.8942 19.2847 56.9766 19.3661 56.9766 19.4891V20.2235C56.9766 20.3456 56.8952 20.4279 56.7722 20.4279H54.3656V21.6109Z" fill="white"/>
<path fill-rule="evenodd" clip-rule="evenodd" d="M66.2787 21.4064C66.2787 22.3443 65.7894 22.8345 64.8506 22.8345H62.4847C61.5469 22.8345 61.0566 22.3452 61.0566 21.4064V18.3875C61.0566 17.4497 61.5459 16.9595 62.4847 16.9595H64.8506C65.7884 16.9595 66.2787 17.4487 66.2787 18.3875V18.7954C66.2787 18.9175 66.1973 18.9998 66.0742 18.9998H65.1761C65.0541 18.9998 64.9727 18.9185 64.9727 18.7954V18.5503C64.9727 18.2645 64.8099 18.1017 64.5241 18.1017H62.8102C62.5244 18.1017 62.3617 18.2655 62.3617 18.5503V21.2427C62.3617 21.5285 62.5254 21.6913 62.8102 21.6913H64.5241C64.8099 21.6913 64.9727 21.5285 64.9727 21.2427V20.7118H63.9118C63.7897 20.7118 63.7074 20.6304 63.7074 20.5083V19.7739C63.7074 19.6519 63.7888 19.5695 63.9118 19.5695H66.0742C66.1963 19.5695 66.2787 19.6509 66.2787 19.7739V21.4055V21.4064Z" fill="white"/>
<path fill-rule="evenodd" clip-rule="evenodd" d="M71.2542 21.6109H74.4776C74.5996 21.6109 74.682 21.6923 74.682 21.8143V22.5487C74.682 22.6708 74.6006 22.7532 74.4776 22.7532H70.1536C70.0316 22.7532 69.9492 22.6718 69.9492 22.5487V17.2453C69.9492 17.1232 70.0306 17.0409 70.1536 17.0409H74.3962C74.5183 17.0409 74.5996 17.1223 74.5996 17.2453V17.9797C74.5996 18.1018 74.5183 18.1832 74.3962 18.1832H71.2542V19.2847H73.6608C73.7839 19.2847 73.8653 19.3661 73.8653 19.4891V20.2235C73.8653 20.3456 73.7839 20.4279 73.6608 20.4279H71.2542V21.6109Z" fill="white"/>
<path fill-rule="evenodd" clip-rule="evenodd" d="M81.9404 20.7535V17.2453C81.9404 17.1232 82.0218 17.0409 82.1439 17.0409H83.041C83.1631 17.0409 83.2455 17.1223 83.2455 17.2453V22.5487C83.2455 22.6708 83.1641 22.7522 83.041 22.7522H81.9395C81.7757 22.7522 81.6944 22.6708 81.613 22.5487L79.4098 19.0406H79.3285V22.5487C79.3285 22.6708 79.2471 22.7522 79.125 22.7522H78.2279C78.1058 22.7522 78.0234 22.6708 78.0234 22.5487V17.2453C78.0234 17.1232 78.1048 17.0409 78.2279 17.0409H79.3294C79.4932 17.0409 79.5745 17.1223 79.6559 17.2453L81.8591 20.7535H81.9404Z" fill="white"/>
<path fill-rule="evenodd" clip-rule="evenodd" d="M88.305 21.6109H90.4665C90.7523 21.6109 90.9151 21.4481 90.9151 21.1623V18.6327C90.9151 18.3469 90.7523 18.1841 90.4665 18.1841H88.305V21.6109ZM90.794 17.0419C91.7318 17.0419 92.222 17.5311 92.222 18.4699V21.3251C92.222 22.2639 91.7328 22.7532 90.794 22.7532H87.2035C87.0814 22.7532 87 22.6718 87 22.5487V17.2453C87 17.1232 87.0814 17.0409 87.2035 17.0409H90.794V17.0419Z" fill="white"/>
<path fill-rule="evenodd" clip-rule="evenodd" d="M99.3581 21.0799C99.3581 20.8755 99.236 20.7457 98.9909 20.6721L96.7471 19.9784C96.0941 19.7749 95.7686 19.4484 95.7686 18.7547V18.3875C95.7686 17.4497 96.2578 16.9595 97.1966 16.9595H99.1546C100.092 16.9595 100.583 17.4487 100.583 18.3875V18.7954C100.583 18.9175 100.501 18.9998 100.379 18.9998H99.4821C99.36 18.9998 99.2777 18.9185 99.2777 18.7954V18.5503C99.2777 18.2645 99.1149 18.1017 98.8291 18.1017H97.5241C97.2383 18.1017 97.0755 18.2655 97.0755 18.5503V18.6317C97.0755 18.8361 97.1976 18.9659 97.4427 19.0396L99.6865 19.7332C100.34 19.9377 100.665 20.2632 100.665 20.9569V21.4055C100.665 22.3433 100.176 22.8335 99.237 22.8335H97.0745C96.1367 22.8335 95.6465 22.3443 95.6465 21.4055V20.9976C95.6465 20.8755 95.7279 20.7932 95.8499 20.7932H96.7471C96.8692 20.7932 96.9515 20.8745 96.9515 20.9976V21.2427C96.9515 21.5285 97.1152 21.6913 97.4001 21.6913H98.9095C99.1953 21.6913 99.3581 21.5285 99.3581 21.2427V21.0799Z" fill="white"/>
<path fill-rule="evenodd" clip-rule="evenodd" d="M54.0988 0L47.6348 11.2676L49.3893 13.0279L53.347 10.3375L50.9356 10.3336L54.0901 4.83352L57.2272 10.3443L54.8158 10.3404L58.7638 13.0444L60.5251 11.2889L54.0988 0Z" fill="white"/>
<path fill-rule="evenodd" clip-rule="evenodd" d="M4.27741 33.7562V30.6646H2.31939V44.0617H4.27741V39.9141H3.50428V37.5957H6.59583V44.861C6.59583 45.6854 5.90021 46.3811 5.04957 46.3811H1.54626C0.721783 46.3801 0 45.6845 0 44.86V29.8905C0 29.066 0.721783 28.3442 1.54626 28.3442H5.05054C5.92637 28.3442 6.5968 29.066 6.5968 29.8905V33.7552H4.27838L4.27741 33.7562Z" fill="white"/>
<path fill-rule="evenodd" clip-rule="evenodd" d="M9.8418 28.3452H12.1602V44.0617H14.8914V46.3801H9.8418V28.3452Z" fill="white"/>
<path fill-rule="evenodd" clip-rule="evenodd" d="M19.9161 44.0617H21.8741V30.6646H19.9161V44.0617ZM17.5977 29.8915C17.5977 29.067 18.3194 28.3462 19.1429 28.3462H22.6472C23.5231 28.3462 24.1935 29.068 24.1935 29.8915V44.861C24.1935 45.6854 23.4979 46.3811 22.6472 46.3811H19.1429C18.3185 46.3811 17.5977 45.6854 17.5977 44.861V29.8915Z" fill="white"/>
<path fill-rule="evenodd" clip-rule="evenodd" d="M29.7588 44.0617H31.7169V38.239H29.7588V44.0617ZM29.7588 35.9205H31.434V30.6646H29.7588V35.9205ZM27.4395 28.3452H32.2061C33.082 28.3452 33.7524 29.067 33.7524 29.8905V35.688C33.7524 36.3323 33.4172 36.8216 32.9541 36.9504C33.6497 37.1054 34.0363 37.8262 34.0363 38.4705V44.86C34.0363 45.6845 33.3406 46.3801 32.49 46.3801H27.4404V28.3452H27.4395Z" fill="white"/>
<path fill-rule="evenodd" clip-rule="evenodd" d="M39.4971 40.5322H41.5588L40.5279 30.6646L39.4971 40.5322ZM41.8155 42.8506H39.2394L38.879 46.3801H36.5605L38.4672 28.3452H42.5896L44.4449 46.3801H42.1779L41.8175 42.8506H41.8155Z" fill="white"/>
<path fill-rule="evenodd" clip-rule="evenodd" d="M47.0723 28.3452H49.3907V44.0617H52.1218V46.3801H47.0723V28.3452Z" fill="white"/>
<path fill-rule="evenodd" clip-rule="evenodd" d="M60.8311 40.944V44.0617H62.7891V38.239H60.058C59.156 38.239 58.5117 37.492 58.5117 36.7189V29.8915C58.5117 28.9895 59.1298 28.3452 60.058 28.3452H63.5623C64.4381 28.3452 65.1085 28.9895 65.1085 29.8653V33.6525H62.7901V30.6636H60.8321V35.9196H63.5632C64.4391 35.9196 65.1095 36.6414 65.1095 37.4658V44.86C65.1095 45.6845 64.4139 46.3801 63.5632 46.3801H60.059C59.2345 46.3801 58.5127 45.6845 58.5127 44.86V40.944H60.8311Z" fill="white"/>
<path fill-rule="evenodd" clip-rule="evenodd" d="M74.3312 46.3801H68.3535V28.3452H74.151V30.6646H70.6729V35.6367H73.1202V37.9551H70.6729V44.0617H74.3312V46.3801Z" fill="white"/>
<path fill-rule="evenodd" clip-rule="evenodd" d="M79.6387 36.4098H81.3139V30.6646H79.6387V36.4098ZM81.5968 38.7282H79.6387V46.3801H77.3203V28.3452H82.087C82.9628 28.3452 83.6332 29.067 83.6332 29.8905V36.1773C83.6332 36.8216 83.298 37.3108 82.8349 37.4397C83.5305 37.5937 83.9171 38.3155 83.9171 38.9598V46.3801H81.5987V38.7282H81.5968Z" fill="white"/>
<path fill-rule="evenodd" clip-rule="evenodd" d="M87.0332 46.3801H89.3526V28.3452H87.0332V46.3801Z" fill="white"/>
<path fill-rule="evenodd" clip-rule="evenodd" d="M98.5744 46.3801H92.5977V28.3452H98.3942V30.6646H94.9161V35.6367H97.3634V37.9551H94.9161V44.0617H98.5744V46.3801Z" fill="white"/>
<path fill-rule="evenodd" clip-rule="evenodd" d="M103.883 40.944V44.0617H105.841V38.239H103.11C102.208 38.239 101.564 37.492 101.564 36.7189V29.8915C101.564 28.9895 102.183 28.3452 103.11 28.3452H106.614C107.49 28.3452 108.16 28.9895 108.16 29.8653V33.6525H105.842V30.6636H103.884V35.9196H106.615C107.491 35.9196 108.161 36.6414 108.161 37.4658V44.86C108.161 45.6845 107.466 46.3801 106.615 46.3801H103.111C102.286 46.3801 101.565 45.6845 101.565 44.86V40.944H103.884H103.883Z" fill="white"/>
<path fill-rule="evenodd" clip-rule="evenodd" d="M4.27741 33.7562V30.6646H2.31939V44.0617H4.27741V39.9141H3.50428V37.5957H6.59583V44.861C6.59583 45.6854 5.90021 46.3811 5.04957 46.3811H1.54626C0.721783 46.3801 0 45.6845 0 44.86V29.8905C0 29.066 0.721783 28.3442 1.54626 28.3442H5.05054C5.92637 28.3442 6.5968 29.066 6.5968 29.8905V33.7552H4.27838L4.27741 33.7562Z" fill="white"/>
<path fill-rule="evenodd" clip-rule="evenodd" d="M9.8418 28.3452H12.1602V44.0617H14.8914V46.3801H9.8418V28.3452Z" fill="white"/>
<path fill-rule="evenodd" clip-rule="evenodd" d="M19.9161 44.0617H21.8741V30.6646H19.9161V44.0617ZM17.5977 29.8915C17.5977 29.067 18.3194 28.3462 19.1429 28.3462H22.6472C23.5231 28.3462 24.1935 29.068 24.1935 29.8915V44.861C24.1935 45.6854 23.4979 46.3811 22.6472 46.3811H19.1429C18.3185 46.3811 17.5977 45.6854 17.5977 44.861V29.8915Z" fill="white"/>
<path fill-rule="evenodd" clip-rule="evenodd" d="M29.7588 44.0617H31.7169V38.239H29.7588V44.0617ZM29.7588 35.9205H31.434V30.6646H29.7588V35.9205ZM27.4395 28.3452H32.2061C33.082 28.3452 33.7524 29.067 33.7524 29.8905V35.688C33.7524 36.3323 33.4172 36.8216 32.9541 36.9504C33.6497 37.1054 34.0363 37.8262 34.0363 38.4705V44.86C34.0363 45.6845 33.3406 46.3801 32.49 46.3801H27.4404V28.3452H27.4395Z" fill="white"/>
<path fill-rule="evenodd" clip-rule="evenodd" d="M39.4971 40.5322H41.5588L40.5279 30.6646L39.4971 40.5322ZM41.8155 42.8506H39.2394L38.879 46.3801H36.5605L38.4672 28.3452H42.5896L44.4449 46.3801H42.1779L41.8175 42.8506H41.8155Z" fill="white"/>
<path fill-rule="evenodd" clip-rule="evenodd" d="M47.0723 28.3452H49.3907V44.0617H52.1218V46.3801H47.0723V28.3452Z" fill="white"/>
<path fill-rule="evenodd" clip-rule="evenodd" d="M60.8311 40.944V44.0617H62.7891V38.239H60.058C59.156 38.239 58.5117 37.492 58.5117 36.7189V29.8915C58.5117 28.9895 59.1298 28.3452 60.058 28.3452H63.5623C64.4381 28.3452 65.1085 28.9895 65.1085 29.8653V33.6525H62.7901V30.6636H60.8321V35.9196H63.5632C64.4391 35.9196 65.1095 36.6414 65.1095 37.4658V44.86C65.1095 45.6845 64.4139 46.3801 63.5632 46.3801H60.059C59.2345 46.3801 58.5127 45.6845 58.5127 44.86V40.944H60.8311Z" fill="white"/>
<path fill-rule="evenodd" clip-rule="evenodd" d="M74.3312 46.3801H68.3535V28.3452H74.151V30.6646H70.6729V35.6367H73.1202V37.9551H70.6729V44.0617H74.3312V46.3801Z" fill="white"/>
<path fill-rule="evenodd" clip-rule="evenodd" d="M79.6387 36.4098H81.3139V30.6646H79.6387V36.4098ZM81.5968 38.7282H79.6387V46.3801H77.3203V28.3452H82.087C82.9628 28.3452 83.6332 29.067 83.6332 29.8905V36.1773C83.6332 36.8216 83.298 37.3108 82.8349 37.4397C83.5305 37.5937 83.9171 38.3155 83.9171 38.9598V46.3801H81.5987V38.7282H81.5968Z" fill="white"/>
<path fill-rule="evenodd" clip-rule="evenodd" d="M87.0332 46.3801H89.3526V28.3452H87.0332V46.3801Z" fill="white"/>
<path fill-rule="evenodd" clip-rule="evenodd" d="M98.5744 46.3801H92.5977V28.3452H98.3942V30.6646H94.9161V35.6367H97.3634V37.9551H94.9161V44.0617H98.5744V46.3801Z" fill="white"/>
<path fill-rule="evenodd" clip-rule="evenodd" d="M103.883 40.944V44.0617H105.841V38.239H103.11C102.208 38.239 101.564 37.492 101.564 36.7189V29.8915C101.564 28.9895 102.183 28.3452 103.11 28.3452H106.614C107.49 28.3452 108.16 28.9895 108.16 29.8653V33.6525H105.842V30.6636H103.884V35.9196H106.615C107.491 35.9196 108.161 36.6414 108.161 37.4658V44.86C108.161 45.6845 107.466 46.3801 106.615 46.3801H103.111C102.286 46.3801 101.565 45.6845 101.565 44.86V40.944H103.884H103.883Z" fill="white"/>
<path d="M101.438 16.88C101.446 16.88 101.455 16.8887 101.455 16.8974V16.9556C101.455 16.9662 101.446 16.974 101.438 16.974H101.266V17.4284C101.266 17.4371 101.258 17.4458 101.249 17.4458H101.189C101.18 17.4458 101.171 17.4371 101.171 17.4284V16.974H101C100.991 16.974 100.982 16.9653 100.982 16.9556V16.8974C100.982 16.8887 100.991 16.88 101 16.88H101.437H101.438Z" fill="white"/>
<path d="M102.013 17.4458C101.996 17.4458 101.991 17.4371 101.987 17.4284L101.824 17.0602H101.816V17.4284C101.816 17.4371 101.807 17.4458 101.798 17.4458H101.738C101.729 17.4458 101.721 17.4371 101.721 17.4284V16.8974C101.721 16.8887 101.729 16.88 101.738 16.88H101.816C101.833 16.88 101.838 16.8887 101.842 16.8974L102.031 17.3257H102.039L102.228 16.8974C102.231 16.8887 102.237 16.88 102.254 16.88H102.331C102.34 16.88 102.349 16.8887 102.349 16.8974V17.4284C102.349 17.4371 102.34 17.4458 102.331 17.4458H102.271C102.262 17.4458 102.254 17.4371 102.254 17.4284V17.0602H102.245L102.082 17.4284C102.079 17.4371 102.073 17.4458 102.056 17.4458H102.013Z" fill="white"/>
<path d="M101.438 16.88C101.446 16.88 101.455 16.8887 101.455 16.8974V16.9556C101.455 16.9662 101.446 16.974 101.438 16.974H101.266V17.4284C101.266 17.4371 101.258 17.4458 101.249 17.4458H101.189C101.18 17.4458 101.171 17.4371 101.171 17.4284V16.974H101C100.991 16.974 100.982 16.9653 100.982 16.9556V16.8974C100.982 16.8887 100.991 16.88 101 16.88H101.437H101.438Z" fill="white"/>
<path d="M102.013 17.4458C101.996 17.4458 101.991 17.4371 101.987 17.4284L101.824 17.0602H101.816V17.4284C101.816 17.4371 101.807 17.4458 101.798 17.4458H101.738C101.729 17.4458 101.721 17.4371 101.721 17.4284V16.8974C101.721 16.8887 101.729 16.88 101.738 16.88H101.816C101.833 16.88 101.838 16.8887 101.842 16.8974L102.031 17.3257H102.039L102.228 16.8974C102.231 16.8887 102.237 16.88 102.254 16.88H102.331C102.34 16.88 102.349 16.8887 102.349 16.8974V17.4284C102.349 17.4371 102.34 17.4458 102.331 17.4458H102.271C102.262 17.4458 102.254 17.4371 102.254 17.4284V17.0602H102.245L102.082 17.4284C102.079 17.4371 102.073 17.4458 102.056 17.4458H102.013Z" fill="white"/>
</g>
<defs>
<clipPath id="clip0_15340_340">
<rect width="108.257" height="60" fill="white"/>
</clipPath>
</defs>
</svg>
